# xmcd
#
# Track frame offsets:
#	150
#	16573
#	38918
#	69375
#	84663
#	109387
#	141369
#	167301
#	199993
#	222166
#	261483
#	289860
#
# Disc length: 4264 seconds
#
# Revision: 0
# Processed by: cddbd v1.4PL0 Copyright (c) Steve Scherf et al.
# Submitted via: EasyCDDAExtractor 4.6.9.1
#
DISCID=af10a60c
DTITLE=JANICE JAMISON - LIVE CAP D'AGDE 2000
DYEAR=2000
DGENRE=Gospel
TTITLE0=DEEP RIVER
TTITLE1=NOBODY KNOWS
TTITLE2=SOMETIMES I FELL LIKE A MOTHERLESS CHILD
TTITLE3=EVEN ME
TTITLE4=GLORY GLORY
TTITLE5=AMAZING GRACE
TTITLE6=ONLY WHAT YOU DO FOR CHRIST
TTITLE7=WILL THE CIRCLE
TTITLE8=I BELEIVE
TTITLE9=I'LL FLY AWAY
TTITLE10=WHEN THE SAINT GO MARCHING IN
TTITLE11=HAPPY DAY
EXTD=
EXTT0=
EXTT1=
EXTT2=
EXTT3=
EXTT4=
EXTT5=
EXTT6=
EXTT7=
EXTT8=
EXTT9=
EXTT10=
EXTT11=
PLAYORDER=
